# xmcd
#
# Track frame offsets: 
#        151
#        15346
#        31511
#        45278
#        59653
#        76206
#        91249
#        106070
#        121045
#        131146
#        151747
#        165210
#        182753
#        201244
#        224019
#        244166
#        262897
#        279818
#
# Disc length: 3982 seconds
#
# Revision: 0
# Processed by: cddbd v1.5.1PL2 Copyright (c) Steve Scherf et al.
# Submitted via: ExactAudioCopy v0.95b3
#
DISCID=d80f8c12
DTITLE=Michael Bolton - Vintage
DYEAR=1900
DGENRE=Easy Listening
TTITLE0=The Very Thought Of You
TTITLE1=All The Way
TTITLE2=A Kiss To Build A Dream On
TTITLE3=If I Could
TTITLE4=At Last
TTITLE5=When I Fall In Love
TTITLE6=You Don't Know Me
TTITLE7=Smile
TTITLE8=Daddy's Little Girl
TTITLE9=Summertime
TTITLE10=What Are You Doing The Rest Of Your Life
TTITLE11=When a man loves a woman
TTITLE12=Don't make me wait for love
TTITLE13=Said I loved you but I lied
TTITLE14=Miss you now
TTITLE15=Only a woman like you
TTITLE16=All that you deserve
TTITLE17=A love so beautiful
EXTD=
EXTT0=
EXTT1=
EXTT2=
EXTT3=
EXTT4=
EXTT5=
EXTT6=
EXTT7=
EXTT8=
EXTT9=
EXTT10=
EXTT11=
EXTT12=
EXTT13=
EXTT14=
EXTT15=
EXTT16=
EXTT17=
PLAYORDER=
